<svg width="24" height="20" viewBox="0 0 24 20" fill="none" xmlns="http://www.w3.org/2000/svg">
<path d="M11.9998 7.28099V11.281M11.9998 15.281H12.0098M10.6151 2.17272L2.39019 16.3793C1.93398 17.1673 1.70588 17.5613 1.73959 17.8847C1.769 18.1667 1.91677 18.423 2.14613 18.5898C2.40908 18.781 2.86435 18.781 3.77487 18.781H20.2246C21.1352 18.781 21.5904 18.781 21.8534 18.5898C22.0827 18.423 22.2305 18.1667 22.2599 17.8847C22.2936 17.5613 22.0655 17.1673 21.6093 16.3793L13.3844 2.17271C12.9299 1.38755 12.7026 0.994969 12.4061 0.863115C12.1474 0.748102 11.8521 0.748102 11.5935 0.863115C11.2969 0.994969 11.0696 1.38755 10.6151 2.17272Z" stroke="#2C2C2C" stroke-width="1.5" stroke-linecap="round" stroke-linejoin="round"/>
</svg>
