<svg width="21" height="21" viewBox="0 0 21 21" fill="none" xmlns="http://www.w3.org/2000/svg">
<path d="M7 9.28101L10 12.281L20 2.28101M14 1.28101H5.8C4.11984 1.28101 3.27976 1.28101 2.63803 1.60799C2.07354 1.89561 1.6146 2.35455 1.32698 2.91903C1 3.56077 1 4.40085 1 6.08101V14.481C1 16.1612 1 17.0012 1.32698 17.643C1.6146 18.2075 2.07354 18.6664 2.63803 18.954C3.27976 19.281 4.11984 19.281 5.8 19.281H14.2C15.8802 19.281 16.7202 19.281 17.362 18.954C17.9265 18.6664 18.3854 18.2075 18.673 17.643C19 17.0012 19 16.1612 19 14.481V10.281" stroke="white" stroke-width="1.5" stroke-linecap="round" stroke-linejoin="round"/>
</svg>
